<svg width="24" height="24" viewBox="0 0 24 24" fill="none" xmlns="http://www.w3.org/2000/svg">
<path d="M12 15C13.6569 15 15 13.6569 15 12C15 10.3431 13.6569 9 12 9C10.3431 9 9 10.3431 9 12C9 13.6569 10.3431 15 12 15Z" stroke="#C0C0C0" stroke-width="2" stroke-linecap="round" stroke-linejoin="round"/>
<path d="M19.4 15L18.9 13.6C18.7 13.1 18.3 12.7 17.8 12.5L16 11.7C15.5 11.4 15.2 10.9 15.2 10.3L15.3 8.5C15.3 7.9 15.6 7.4 16.1 7.1L17.5 6.1C18 5.8 18.6 5.8 19.1 6.1L20.5 7.1C21 7.4 21.3 7.9 21.3 8.5L21.2 10.3C21.2 10.9 20.9 11.4 20.4 11.7L18.6 12.5C18.1 12.8 17.7 13.2 17.5 13.7L17 15" stroke="#C0C0C0" stroke-width="2" stroke-linecap="round" stroke-linejoin="round"/>
<path d="M4.6 15L5.1 13.6C5.3 13.1 5.7 12.7 6.2 12.5L8 11.7C8.5 11.4 8.8 10.9 8.8 10.3L8.7 8.5C8.7 7.9 8.4 7.4 7.9 7.1L6.5 6.1C6 5.8 5.4 5.8 4.9 6.1L3.5 7.1C3 7.4 2.7 7.9 2.7 8.5L2.8 10.3C2.8 10.9 3.1 11.4 3.6 11.7L5.4 12.5C5.9 12.8 6.3 13.2 6.5 13.7L7 15" stroke="#C0C0C0" stroke-width="2" stroke-linecap="round" stroke-linejoin="round"/>
</svg>